<?xml version="1.0" encoding="utf-8"?>
<!-- Generator: Adobe Illustrator 27.5.0, SVG Export Plug-In . SVG Version: 6.00 Build 0)  -->
<svg version="1.1" xmlns="http://www.w3.org/2000/svg" xmlns:xlink="http://www.w3.org/1999/xlink" x="0px" y="0px"
	 viewBox="0 0 2000 2000" style="enable-background:new 0 0 2000 2000;" xml:space="preserve">
<g id="Layer_3">
	<rect style="fill:#FFFFFF;" width="2000" height="2000"/>
	<path style="fill:#4F95CF;" d="M933.692,1670.004c-0.629-19.894-1.281-39.798-2.18-59.692
		c-1.81-40.237-4.619-80.474-10.273-120.373c-9.464-66.795-34.347-126.24-51.757-190.731c-6.901-25.558-12.318-51.51-16.454-77.652
		c-7.721-48.767-10.79-97.793-10.374-147.044c0.416-48.273,3.911-97.007,20.86-142.638c9.205-24.805,19.422-55.904,39.585-74.112
		c3.192-2.877,8.857-6.047,11.487-8.744c0-0.023-0.001-0.046-0.001-0.069c0.997-0.763,1.969-1.55,2.892-2.383
		c0.69-4.464,1.528-8.909,2.194-13.428c0.057-0.339,0.102-0.689,0.147-1.028c-10.417-0.839-21.918,6.688-31.08,10.667
		c-21.829,9.497-44.242,17.607-65.997,27.315c-10.013,4.467-20.176,9.152-29.954,13.904c-9.546,4.643-17.046,12.46-26.636,17.127
		c-10.72,5.22-21.464,10.385-32.363,15.263c-8.239,3.691-16.51,7.342-24.722,11.117c5.873,15.834,13.513,31.019,22.725,45.172
		c-0.291,1.021-0.583,2.041-0.901,3.056c-8.092,25.727-23.872,47.947-34.64,72.494c-2.641,6.024-4.855,12.172-7.047,18.275
		l0.022,0.011c4.934,2.686,5.136,8.699,6.811,13.892c13.903,43.069-8.89,67.953-15.151,108.246
		c-5.024,32.268,7.047,61.446,5.71,92.949c-0.865,20.332-12.15,37.742-17.376,56.938c-2.338,8.598-3.967,17.354-5.204,26.176
		c-11.678,84.093-30.593,167.747-47.059,251.165c-3.945,19.984-7.362,41.574-12.521,62.682l0.045,0.011
		c5.305,64.525,5.99,130.522,5.496,195.733H933.31c1.416-29.144,2.484-58.31,2.574-87.487
		C936.018,1747.567,934.939,1709.14,933.692,1670.004z M862.288,1557.094c-4.664-10.43,1.472-24.367,13.599-25.21
		c5.586-0.393,9.036-0.191,13.712,3.45c9.981,7.8,5.788,20.557-1.191,28.829C881.496,1572.379,865.975,1565.332,862.288,1557.094z
		 M899.805,1751.883c-6.923,8.205-22.434,1.169-26.12-7.069c-4.664-10.441,1.472-24.367,13.588-25.21
		c5.586-0.393,9.048-0.191,13.712,3.451C910.977,1730.854,906.774,1743.61,899.805,1751.883z"/>
	<path style="fill:#FFBC3B;" d="M691.429,402.175c3.135,1.96,3.3,6.46,0.594,8.647c-3.211,2.604-6.89,2.996-10.796,2.465
		c-5.373-0.733-10.973-1.087-16.359-1.353c-6.359-0.316-12.743-0.354-19.115-0.569c-4.627-0.164-12.781,0.708-16.498-2.68
		c-4.715-4.311-0.683-8.521,4.286-9.557c4.526-0.923,9.241,0.025,13.729,0.215c3.274,0.126,6.612,0.291,9.924,0.405
		c7.067,0.24,14.146,0.126,21.213,0.19C682.744,399.975,687.611,399.76,691.429,402.175z"/>
	<path style="fill:#FFBC3B;" d="M647.22,299.637c6.018,0.379,5.575,6.991,1.909,9.974c-0.506,2.01-3.666,2.566-5.284,3.78
		c-2.427,1.808-15.676,12.073-17.737,14.273c-1.846,1.972-4.058,2.958-6.258,4.538c-2.882,2.061-12.452,9.355-15.524,3.691
		c-0.91-1.681-0.278-3.881,0.619-5.385c1.985-3.312,5.714-5.701,9.052-7.471c3.122-1.643,6.637-3.906,8.849-6.675
		c2.111-2.629,15.575-11.972,18.141-14.045C642.745,300.901,644.843,299.472,647.22,299.637z"/>
	<path style="fill:#FFBC3B;" d="M647.207,511.312c0.834,3.603-2.2,6.915-5.664,6.561c-4.121-0.405-7.016-2.718-9.418-5.841
		c-3.3-4.298-7.016-8.495-10.657-12.478c-4.298-4.703-8.811-9.216-13.173-13.855c-3.173-3.375-9.583-8.483-9.835-13.514
		c-0.329-6.384,5.512-6.536,9.76-3.767c3.868,2.516,6.549,6.511,9.608,9.798c2.238,2.415,4.5,4.867,6.763,7.282
		c4.854,5.145,9.962,10.038,14.943,15.069C642.58,503.639,646.183,506.926,647.207,511.312z"/>
	<path style="fill:#FFBC3B;" d="M580.18,409.874c1.466,9.203-9.14,8.887-15.853,8.495c1.997-3.995,4.539-7.674,7.952-10.619
		C575.578,404.893,579.371,404.767,580.18,409.874z"/>
	<path style="fill:#DEDEDE;" d="M563.518,532.121c0,0.278-0.948-0.139-1.466-0.316c-0.986-0.316-2.023-0.695-2.971-1.087
		c-2.263-0.91-3.868-1.618-6.22-2.174c-10.91-2.579-21.769-6.485-32.439-9.886h-0.303c-0.013-3.047,0.152-6.144-0.051-9.153
		c-0.126-1.934-0.847-4.121-0.923-6.194l0.164-0.013c0,1.011,19.633,7.712,21.466,8.268c7.143,2.149,14.412,3.552,21.099,6.94
		c0.847,0.43,1.972,1.542,2.819,1.251h0.367c-0.025,4.185-0.24,8.356-0.948,12.465L563.518,532.121z"/>
	<path style="fill:#DEDEDE;" d="M562.052,531.805c0.518,0.177,1.466,0.594,1.466,0.316l0.594,0.101
		c-0.177,1.075-0.392,2.149-0.645,3.211c-0.784,3.224-1.277,6.384-2.92,9.305c-0.468,0.834-0.973,1.618-1.517,2.377l-0.114-0.076
		c-2.882-1.163-5.828-2.832-8.875-3.831c-9.507-3.11-19.102-7.282-28.305-11.188l-0.999,0.013c-0.038-2.769,0.076-5.563-0.303-8.318
		c-0.228-1.656-0.303-3.35-0.316-5.057h0.303c10.67,3.401,21.529,7.307,32.439,9.886c2.351,0.556,3.957,1.264,6.22,2.174
		C560.029,531.109,561.065,531.489,562.052,531.805z"/>
	<path style="fill:#FFBC3B;" d="M532.596,498.253c-0.051,0-0.089,0-0.139,0c-0.759-10.961-4.197-21.567-5.866-32.464
		c-2.086-13.678-3.337-28.204-8.116-41.276c-0.771-2.086-1.631-4.146-2.63-6.144c0.809-0.051,1.568-0.089,2.238-0.126
		c2.579-0.126,5.373-1.1,7.813-1.96c2.781-0.986,5.082-2.87,7.244-4.817c2.035-1.808,4.513-3.502,6.018-5.777
		c0.164-0.253,0.329-0.518,0.493-0.784c3.502,5.158,8.495,9.216,14.639,11.378c2.427,0.86,5.221,1.833,7.813,1.96
		c0.67,0.038,1.416,0.076,2.225,0.126c-0.999,1.997-1.858,4.058-2.617,6.144c-4.791,13.072-6.043,27.597-8.129,41.276
		c-1.504,9.861-5.044,19.936-5.12,29.949c0,0.923,0.139,1.858,0.152,2.781C543.253,498.557,537.868,498.405,532.596,498.253z"/>
	<path style="fill:#DEDEDE;" d="M558.916,547.038l0.114,0.076c-1.252,1.757-2.705,3.325-4.425,4.716
		c-4.096,3.325-10.632,3.78-15.638,3.135c-6.043-0.797-11.289-4.501-14.525-9.595c-1.631-2.579-2.844-5.537-3.338-8.546
		c-0.266-1.58-0.341-3.186-0.367-4.791l0.999-0.013c9.203,3.906,18.799,8.078,28.305,11.188
		C553.089,544.206,556.034,545.875,558.916,547.038z"/>
	<path style="fill:#FFBC3B;" d="M543.304,388.699c0.114,5.499-0.797,11.428-3.654,16.207c-2.541-3.742-4.298-8.066-5.133-12.667
		c-0.67-3.666-0.67-10.404,3.224-12.553C541.685,377.523,543.266,386.625,543.304,388.699z"/>
	<path style="fill:#FFBC3B;" d="M542.659,258.904c1.264,1.631-0.24,4.463-0.291,6.485c-0.063,3.034-0.152,19.785,0.316,22.755
		c0.417,2.68-0.164,5.031-0.278,7.737c-0.152,3.54-0.303,15.562-6.662,14.5c-1.884-0.316-3.236-2.174-3.856-3.805
		c-1.391-3.603-0.973-8.015-0.303-11.732c0.62-3.464,0.999-7.636,0.19-11.074c-0.771-3.287,0.177-19.658,0.126-22.945
		c-0.038-2.263,0.126-4.791,1.719-6.574C537.64,249.752,542.558,254.176,542.659,258.904z"/>
	<path style="fill:#8CC295;" d="M532.596,498.253c-0.038,0.139,0.025,0.215-0.114,0.354c-0.013-0.114-0.013-0.24-0.025-0.354
		C532.508,498.253,532.545,498.253,532.596,498.253z"/>
	<path style="fill:#FFBC3B;" d="M522.128,497.975l-1.176,0.594l-0.291-0.885c-1.53-4.121-3.148-7.674-5.575-11.39
		c-5.777-8.862-15.436-12.958-23.312-19.418c-18.95-15.524-30.72-40.049-31.984-64.676c-2.048-39.835,28.343-77.482,69.189-78.405
		c17.838-0.405,37.862,3.426,52.363,14.096c13.944,10.24,24.69,24.74,29.873,41.301c5.347,17.029,4.791,35.536-1.214,52.312
		c-3.009,8.42-7.345,16.346-12.768,23.438c-5.841,7.636-14.513,12.275-20.48,19.544c-5.423,6.586-12.996,13.223-13.742,22.275
		l-0.101,0.961l-0.544,0.215c-4.513,0.405-9.115,0.556-13.754,0.582c-0.013-0.923-0.152-1.858-0.152-2.781
		c0.076-10.012,3.615-20.088,5.12-29.949c2.086-13.678,3.338-28.204,8.129-41.276c0.759-2.086,1.618-4.146,2.617-6.144
		c6.713,0.392,17.319,0.708,15.853-8.495c-0.809-5.107-4.602-4.981-7.901-2.124c-3.413,2.946-5.954,6.624-7.952,10.619
		c-0.809-0.051-1.555-0.089-2.225-0.126c-2.592-0.126-5.385-1.1-7.813-1.96c-6.144-2.162-11.138-6.22-14.639-11.378
		c2.857-4.779,3.767-10.708,3.654-16.207c-0.038-2.073-1.618-11.176-5.563-9.014c-3.894,2.149-3.894,8.887-3.224,12.553
		c0.834,4.602,2.591,8.925,5.133,12.667c-0.164,0.265-0.329,0.531-0.493,0.784c-1.504,2.276-3.982,3.97-6.018,5.777
		c-2.162,1.947-4.463,3.831-7.244,4.817c-2.44,0.86-5.234,1.833-7.813,1.96c-0.67,0.038-1.428,0.076-2.238,0.126
		c-1.997-3.995-4.538-7.674-7.952-10.619c-3.3-2.857-7.079-2.983-7.901,2.124c-1.466,9.203,9.14,8.887,15.853,8.495
		c0.999,1.997,1.858,4.058,2.63,6.144c4.779,13.072,6.03,27.597,8.116,41.276c1.669,10.897,5.107,21.504,5.866,32.464
		C528.955,498.152,525.504,498.038,522.128,497.975z"/>
	<path style="fill:#DEDEDE;" d="M519.309,503.297l-0.164,0.013c-0.076-1.732,0.291-3.388,1.808-4.741l1.176-0.594
		c3.375,0.063,6.827,0.177,10.328,0.278c0.013,0.114,0.013,0.24,0.025,0.354c0.139-0.139,0.076-0.215,0.114-0.354
		c5.272,0.152,10.657,0.303,16.017,0.265c4.64-0.025,9.241-0.177,13.754-0.582l0.544-0.215c2.073,1.327,2.174,4.361,2.174,6.561
		c0.013,2.996-0.164,5.954-0.101,8.976c0.051,2.162,0.089,4.336,0.076,6.498h-0.367c-0.847,0.291-1.972-0.822-2.819-1.251
		c-6.688-3.388-13.957-4.791-21.099-6.94C538.942,511.009,519.309,504.309,519.309,503.297z"/>
	<path style="fill:#FFBC3B;" d="M507.894,407.75c3.413,2.946,5.954,6.624,7.952,10.619c-6.713,0.392-17.319,0.708-15.853-8.495
		C500.814,404.767,504.594,404.893,507.894,407.75z"/>
	<path style="fill:#FFBC3B;" d="M465.278,468.418c4.26-2.769,10.088-2.617,9.772,3.767c-0.253,5.031-6.662,10.139-9.835,13.514
		c-4.374,4.639-8.875,9.153-13.185,13.855c-3.628,3.982-7.358,8.179-10.657,12.478c-2.402,3.123-5.297,5.436-9.406,5.841
		c-3.464,0.354-6.511-2.958-5.676-6.561c1.024-4.387,4.64-7.674,7.686-10.746c4.981-5.032,10.088-9.924,14.943-15.069
		c2.263-2.415,4.526-4.867,6.763-7.282C458.729,474.929,461.422,470.934,465.278,468.418z"/>
	<path style="fill:#FFBC3B;" d="M456.302,334.516c3.502,3.679,4.399,9.444-1.922,10.29c-4.993,0.657-11.188-4.703-15.082-7.206
		c-5.36-3.451-10.619-7.054-16.03-10.43c-4.576-2.857-9.38-5.752-14.21-8.205c-3.514-1.795-6.308-4.222-7.471-8.192
		c-0.961-3.337,1.732-6.928,5.423-6.763c4.501,0.202,8.394,3.148,11.972,5.588c5.853,3.982,11.593,8.103,17.547,11.934
		c2.781,1.795,5.613,3.565,8.382,5.322C448.704,329.269,453.116,331.178,456.302,334.516z"/>
	<path style="fill:#FFBC3B;" d="M439.956,399.128c4.981,1.037,9.014,5.246,4.286,9.557c-3.717,3.388-11.858,2.516-16.485,2.68
		c-6.371,0.215-12.756,0.253-19.127,0.569c-5.385,0.265-10.973,0.619-16.346,1.353c-3.906,0.531-7.598,0.139-10.809-2.465
		c-2.693-2.187-2.528-6.688,0.594-8.647c3.818-2.415,8.698-2.2,13.034-2.238c7.067-0.063,14.146,0.051,21.213-0.19
		c3.312-0.114,6.637-0.278,9.924-0.405C430.728,399.154,435.443,398.205,439.956,399.128z"/>
	<path style="fill:#E39476;" d="M1015.716,786.244l0.022-0.652c29.2-0.967,63.3-17.949,88.397-37.483l0.528,0.663
		c-1.068,8.441-0.562,17.713-1.191,25.289c-1.248,14.847-2.023,30.2-0.888,45.16c-17.342,1.045-34.123,5.496-52.072,4.057
		c-20.051-1.607-41.451-6.789-60.187-14.083c-16.499-6.418-31.167-17.061-45.205-27.66c-9.587-7.238-17.117-15.859-25.322-24.502
		c-1.461-1.54-3.001-3.585-4.631-5.665c9.531,5.35,19.242,10.43,29.11,15.6c12.105,6.339,25.052,10.543,38.259,14.139
		C993.182,784.019,1004.814,785.93,1015.716,786.244z"/>
	<path style="fill:#37628F;" d="M889.6,1535.334c9.981,7.8,5.788,20.557-1.191,28.829c-6.912,8.216-22.434,1.169-26.12-7.07
		c-4.664-10.43,1.472-24.367,13.6-25.21C881.474,1531.491,884.924,1531.693,889.6,1535.334z"/>
	<path style="fill:#4F95CF;" d="M1397.056,1874.302h-264.574c0.371-40.54,0.899-81.373-2.709-121.565
		c-3.035-33.797-4.855-67.751-3.945-101.682c0.753-27.885-1.461-56.152-0.517-84.239c1.045-31.414,7.8-62.659,9.093-94.208
		c0.967-23.524,5.013-46.284,9.992-69.291c5.709-26.39,5.35-53.578,12.565-79.9c7.294-26.581,15.027-53.005,20.298-80.226
		c4.799-24.76,7.755-49.734,12.824-74.371c11.509-55.848,11.79-112.36,2.664-168.624c-2.652-16.421-3.799-32.751-7.868-48.981
		c-7.969-31.751-22.445-62.715-47.25-84.789c-9.171-8.16-21.726-12.105-30.683-19.691c-0.832-4.439-1.809-8.857-2.619-13.352
		c-0.068-0.337-0.124-0.686-0.18-1.023c10.385-1.169,22.119,5.991,31.403,9.677c22.119,8.8,44.778,16.196,66.829,25.21
		c10.149,4.147,20.456,8.508,30.38,12.948c9.688,4.338,17.432,11.914,27.166,16.275c10.88,4.878,21.782,9.7,32.83,14.229
		c23.49,9.643,47.239,18.938,69.257,31.717c29.222,16.949,56.691,33.898,79.957,59.029c21.737,23.49,39.034,54.488,54.061,82.553
		c16.657,31.066,29.222,65.795,40.484,99.131c2.72,8.081,6.721,16.218,8.295,24.592c2.956,15.757,4.024,32.201,6.406,48.138
		c2.697,18.017,5.136,36.078,7.384,54.162c4.552,36.775,8.25,73.651,11.442,110.561c4.069,47.07,3.563,94.433,8.609,141.424
		c4.934,46.036,22.894,87.341,30.65,132.512c5.024,29.301-0.832,58.692-2.742,87.981c-1.034,15.78,4.777,31.032,4.586,46.733
		c-0.18,15.117-4.237,29.897-4.653,45.07H1397.056z"/>
	<path style="fill:#F5B49B;" d="M539.641,1031.902c-1.585-7.474-2.551-15.005-3.956-22.614c-1.483-8.036-3.293-16.016-5.103-23.985
		c-7.564-33.291-13.262-64.345-2.765-97.703c9.43-29.953,25.783-57.422,32.943-88.139c4.912-21.063,3.743-42.226,3.057-63.693
		c-0.854-26.311,0.517-52.712,0.674-79.024c0.112-18.421-2.046-45.193,16.218-56.377c5.181-3.169,8.328-3.226,13.858-0.731
		c15.791,7.137,18.758,30.481,19.444,45.429c1.911,41.878,0.337,83.598,0.169,125.51c-0.011,2.27,0.416,3.675,0.506,5.743
		c5.788-0.225,11.565,0.427,17.028,2.079c24.423,7.362,41.023,29.065,56.017,48.666c3.406-14.319,11.352-31.65,26.323-36.685
		c4.552-1.528,8.452-2.596,12.97-0.944c6.878,2.529,13.195,6.8,16.477,13.532c7.081,14.476-0.236,32.515-3.428,47.07
		c-2.203,10.048-4.889,19.916-4.833,30.38c0.045,11.408,1.944,22.703,2.225,34.1c0.225,9.261,0.18,18.601-0.517,27.885
		c-0.843,11.295-2.652,22.49-6.058,33.325c-8.092,25.727-23.872,47.947-34.64,72.494c-2.641,6.024-4.855,12.172-7.047,18.275
		c-6.362,17.691-12.566,34.932-28.728,47.318c-21.287,16.331-49.768,10.97-71.392-1.72c-11.768-6.901-22.299-16.095-30.717-26.839
		c-4.709-6.002-6.305-10.239-7.654-17.477c-1.765-9.464-6.35-18.522-9.048-27.75
		C540.877,1037.331,540.214,1034.622,539.641,1031.902z"/>
	<path style="fill:#FFFFFF;" d="M1073.161,617.474c5.013,12.341-5.878,26.221-14.027,34.606
		c-13.532,13.903-31.212,21.962-50.88,19.422c-11.071-1.439-19.882-3.911-29.301-10.104c-8.531-5.608-16.578-12.318-22.67-20.557
		c-4.766-6.451-8.531-18.185-3.181-25.423c4.428-6.002,12.925-8.081,20.051-7.339c6.564,0.674,13.307,0.776,19.894,1.247
		c6.182,0.438,12.307,0.191,18.466-0.09c8.059-0.371,16.173,0.034,24.187-1.011c7.317-0.955,14.476-3.99,21.928-2.372
		C1064.484,607.337,1070.385,610.652,1073.161,617.474z"/>
	<path style="fill:#1E244A;" d="M759.92,520.85c-1.135-7.969-2.034-15.96-2.978-23.895c-1.034-8.665-1.765-17.567-4.451-25.985
		c-5.406-16.915-15.859-31.65-21.613-48.43c-2.697-7.879-4.237-15.049-4.125-23.423c0.135-9.093,1.337-18.129,2.124-27.188
		c1.304-15.151,4.473-30.077,8.014-44.845c4.664-19.444,11.667-39.54,9.565-59.737c-0.247-2.338-0.551-4.664-0.843-7.002
		c-1.933-15.24,3.214-26.536,10.183-39.63c10.756-20.242,26.795-39.012,47.363-49.801c22.602-11.857,50.206-15.859,73.82-26.109
		c10.149-4.406,19.905-9.7,29.211-15.69c3.81-2.461,6.71-5.631,10.722-7.71c6.047-3.136,12.453-5.687,18.669-8.351
		c7.452-3.192,15.398-5.687,23.378-7.114c24.367-4.35,50.746-2.855,74.494,3.967c23.299,6.687,47.497,20.95,53.263,46.306
		c1.484,6.519,6.361,5.901,12.285,5.901c17.5-3.979,36.281,0.011,51.847,8.542c22.658,12.408,30.313,33.954,42.507,54.972
		c10.823,18.669,25.974,34.269,39.236,51.15c16.87,21.49,29.717,45.755,25.536,73.899c-1.944,13.116-3.956,25.423-3.552,38.585
		c0.405,13.386-5.979,28.548-9.317,41.383c-2.169,8.306-2.967,17.32-6.215,25.154c-7.789,18.736-9.059,38.483-8.171,58.422
		c0.056,1.45,0.124,2.9,0.214,4.361c0.281,4.743-0.079,11.183-0.449,15.993c-0.303,3.889-0.641,7.463-1.967,11.138
		c-1.135,3.136-3.765,7.957-7.587,8.531c-12.487,1.843-10.093-34.426-10.284-41.102c-0.629-22.04-4.529-46.688-17.219-65.345
		c-6.586-9.688-10.632-21.939-13.33-33.313c-3.001-12.61-3.788-24.49-3.776-37.348c0.022-20.017,1.472-40.226-9.25-58.422
		c-9.801-16.634-29.93-23.985-48.307-25.356c-4.406-0.337-7.204-0.056-11.52-0.315c-29.717-1.787-58.984,0.258-86.622,11.869
		c-8.71,3.664-18.253,5.159-27.671,4.979c-24.221-0.438-47.138-10.115-70.594-15.038c-11.565-2.439-22.512-3.001-34.179-2.203
		c-12.094,0.832-24.221,1.585-34.269,9.318c-9.059,6.968-15.252,17.016-18.758,27.784c-2.439,7.452-3.788,15.229-4.574,23.007
		c-0.978,9.767,1.843,19.062,1.034,28.739c-1.405,16.859-4.507,33.032-12.667,48.003c-2.113,3.9-3.563,8.07-5.35,12.116
		c-1.618,3.653-4.057,6.35-6.238,9.666c-4.777,7.272-10.082,14.33-13.397,22.445c-7.553,18.511-2.787,38.787-2.518,58.051
		c0.112,7.879,0.045,16.443-5.136,22.917c-5.35,6.676-12.498,4.833-17.601-1.169c-5.327-6.238-5.912-14.184-7.261-21.906
		C760.966,528.032,760.415,524.447,759.92,520.85z"/>
	<path style="fill:#8CC295;" d="M1104.147,832.359c0.056,0.337,0.112,0.686,0.18,1.023c-0.349-0.214-0.686-0.169-0.798-0.944
		C1103.732,832.404,1103.945,832.382,1104.147,832.359z"/>
	<path style="fill:#2B1A0F;" d="M1113.375,492.785c1.36,7.025-0.91,14.51-4.788,20.366c-4.305,6.496-13.802,7.339-20.86,5.395
		c-15.758-4.316-20.399-23.029-9.374-34.73c5.889-6.26,15.87-10.711,24.108-6.35
		C1107.531,480.152,1112.296,487.222,1113.375,492.785z"/>
	<path style="fill:#37628F;" d="M900.985,1723.054c9.992,7.8,5.788,20.557-1.18,28.829c-6.924,8.205-22.434,1.169-26.12-7.069
		c-4.664-10.441,1.472-24.367,13.588-25.21C892.859,1719.21,896.321,1719.412,900.985,1723.054z"/>
	<path style="fill:#4F95CF;" d="M696.036,1080.4c13.903,43.069-8.89,67.953-15.151,108.246c-5.024,32.268,7.047,61.445,5.71,92.949
		c-0.865,20.332-12.15,37.742-17.376,56.938c-2.338,8.598-3.967,17.354-5.204,26.176c-11.678,84.093-30.593,167.747-47.059,251.165
		c-3.945,19.984-7.362,41.574-12.521,62.682c-6.53,26.772-15.847,52.769-32.527,73.741
		c-39.596,49.779-134.805,69.099-185.078,23.232c-30.009-27.39-41.552-70.976-45.643-109.999
		c-9.081-86.509,16.96-179.166,45.935-259.685c10.138-28.166,23.816-54.904,34.134-83.002c9.745-26.57,16.173-52.769,19.028-80.946
		c2.012-19.826,6.721-39.248,16.23-56.882c11.149-20.68,30.425-35.55,37.236-58.681c9.261-31.459,3.304-67.919,35.37-88.218
		c3.585-2.27,7.71-3.405,10.52-6.215c0.573,2.72,1.236,5.429,2.023,8.126c2.697,9.228,7.283,18.286,9.048,27.75
		c1.349,7.238,2.945,11.475,7.654,17.477c8.418,10.745,18.949,19.939,30.717,26.839c21.625,12.689,50.105,18.05,71.392,1.72
		c16.162-12.386,22.366-29.627,28.728-47.318l0.022,0.011C694.159,1069.195,694.362,1075.208,696.036,1080.4z"/>
	<path style="fill:#F5B49B;" d="M914.326,834c0-0.708,0.022-1.405,0.056-2.102c0.641-14.128,0.888-28.312,0.056-42.44
		c-0.416-7.07-1.102-14.117-2.147-21.107c-0.449-2.967-1.405-5.923-1.933-8.744c-0.483-2.641,0.247-6.71-1.585-8.89l1.304-2.259
		c1.686,0.978,3.383,1.944,5.091,2.911c1.63,2.079,3.169,4.125,4.631,5.665c8.205,8.643,15.735,17.264,25.322,24.502
		c14.038,10.599,28.705,21.242,45.205,27.66c18.736,7.294,40.136,12.476,60.187,14.083c17.949,1.439,34.73-3.012,52.072-4.057
		c0.18,2.585,0.427,5.159,0.742,7.71c0.225,1.832,0.506,3.63,0.82,5.429c-0.202,0.022-0.416,0.045-0.618,0.079
		c0.112,0.776,0.449,0.731,0.798,0.944c0.809,4.496,1.787,8.913,2.619,13.352c1.124,6.058,1.956,12.161,1.619,18.556
		c-0.618,11.756-3.889,23.299-9.126,33.819c-10.374,20.849-28.525,38.135-50.307,46.598c-4.293,1.675-8.542,3.597-12.891,5.114
		c-7.766,2.72-16.747,3.799-24.951,3.36c-8.328-0.438-17.151-2.09-25.21-4.237c-13.397-3.563-24.581-7.227-35.955-15.578
		c-17.174-12.599-30.47-31.009-35.831-51.735c-2.113-8.115-2.248-14.364-0.652-22.321c0.742-3.687,0.944-7.474,0.944-11.296
		C914.585,844.003,914.237,838.946,914.326,834z"/>
	<path style="fill:#1E244A;" d="M1132.043,413.863c3.349,5.451,0.247,11.307-5.777,12.195c-5.62,0.843-11.104-1.607-16.286-3.405
		c-2.36-0.832-4.9-1.81-7.294-2.394c-2.967-0.73-5.889,0.202-8.879,0.112c-8.62-0.27-16.241,3.046-24.288,5.608
		c-2.135,0.674-4.878,0.922-7.036-0.315c-7.373-4.248-1.607-11.453,2.832-15.409c3.102-2.765,5.867-4.462,9.756-5.934
		c5.001-1.888,10.734-3.956,15.994-4.765c4.552-0.708,9.295-1.034,13.881-0.528C1114.375,400.061,1126.885,405.501,1132.043,413.863
		z"/>
	<path style="fill:#1E244A;" d="M941.559,413.863c3.36,5.451,0.247,11.307-5.777,12.195c-5.62,0.843-11.093-1.607-16.275-3.405
		c-2.36-0.832-4.9-1.81-7.294-2.394c-2.967-0.73-5.889,0.202-8.89,0.112c-8.621-0.27-16.23,3.046-24.288,5.608
		c-2.124,0.674-4.867,0.922-7.025-0.315c-7.373-4.248-1.607-11.453,2.832-15.409c3.102-2.765,5.856-4.462,9.756-5.934
		c5.001-1.888,10.734-3.956,15.982-4.765c4.563-0.708,9.306-1.034,13.881-0.528C923.891,400.061,936.412,405.501,941.559,413.863z"
		/>
	<path style="fill:#2B1A0F;" d="M925.847,492.785c1.36,7.025-0.922,14.51-4.799,20.366c-4.305,6.496-13.802,7.339-20.86,5.395
		c-15.746-4.316-20.388-23.029-9.374-34.73c5.901-6.26,15.87-10.711,24.108-6.35C919.991,480.152,924.768,487.222,925.847,492.785z"
		/>
	<path style="fill:#F5B49B;" d="M915.169,751.369c-1.708-0.967-3.406-1.933-5.091-2.911c-9.756-5.597-19.332-11.554-28.717-18.196
		c-18.489-13.094-38.292-28.065-51.937-46.362c-8.081-10.823-16.443-21.186-24.895-31.774c-7.519-9.419-12.374-20.635-19.657-30.211
		c-7.744-10.205-16.466-11.824-27.222-17.916c-10.958-6.215-21.242-14.712-28.604-24.985c-2.877-4.001-5.901-7.002-7.912-11.554
		c-2.18-4.923-4.327-9.722-5.698-14.948c-2.742-10.453-2.889-21.703,1.304-31.807c3.45-8.306,11.992-14.566,20.939-15.465
		c11.936-1.191,16.039,7.452,22.243,15.611c0.495,3.597,1.045,7.182,1.675,10.767c1.349,7.721,1.933,15.668,7.261,21.906
		c5.103,6.002,12.251,7.845,17.601,1.169c5.181-6.474,5.249-15.038,5.136-22.917c-0.27-19.264-5.035-39.54,2.518-58.051
		c3.316-8.115,8.62-15.173,13.397-22.445c2.18-3.316,4.619-6.013,6.238-9.666c1.787-4.046,3.237-8.216,5.35-12.116
		c8.16-14.971,11.262-31.144,12.667-48.003c0.809-9.677-2.012-18.972-1.034-28.739c0.787-7.778,2.135-15.555,4.574-23.007
		c3.507-10.767,9.7-20.815,18.758-27.784c10.048-7.733,22.175-8.486,34.269-9.318c11.666-0.798,22.613-0.236,34.179,2.203
		c23.456,4.923,46.374,14.6,70.594,15.038c9.419,0.18,18.961-1.315,27.671-4.979c27.638-11.61,56.905-13.656,86.622-11.869
		c4.316,0.258,7.115-0.023,11.52,0.315c18.376,1.371,38.506,8.722,48.307,25.356c10.722,18.196,9.272,38.405,9.25,58.422
		c-0.011,12.858,0.775,24.738,3.776,37.348c2.698,11.374,6.744,23.625,13.33,33.313c12.689,18.657,16.589,43.305,17.219,65.345
		c0.191,6.676-2.203,42.946,10.284,41.102c3.821-0.573,6.451-5.395,7.587-8.531c1.326-3.675,1.663-7.249,1.967-11.138
		c0.371-4.81,0.73-11.25,0.449-15.993c-0.09-1.461-0.157-2.911-0.214-4.361l0.584-0.023c10.587-15.836,33.403-7.643,39.697,7.497
		c4.327,10.43,4.17,22.04,1.338,32.83c-1.416,5.395-3.63,10.351-5.878,15.432c-2.079,4.709-5.204,7.8-8.16,11.936
		c-7.609,10.599-18.23,19.377-29.548,25.783c-8.34,4.732-17.151,8.542-25.693,12.88l-0.607-0.27
		c-10.823,24.704-24.187,50.307-40.765,70.313c-12.97,15.668-28.784,31.122-43.474,45.25c-4.282,4.114-9.059,8.238-14.229,12.262
		c-25.097,19.534-59.198,36.517-88.397,37.483l-0.022,0.652c-10.902-0.315-22.535-2.225-33.178-5.136
		c-13.206-3.597-26.154-7.8-38.259-14.139C934.411,761.799,924.7,756.719,915.169,751.369z M1126.266,426.057
		c6.024-0.888,9.126-6.744,5.777-12.195c-5.159-8.362-17.668-13.802-27.098-14.836c-4.586-0.506-9.329-0.18-13.881,0.528
		c-5.26,0.809-10.992,2.877-15.994,4.765c-3.889,1.472-6.654,3.17-9.756,5.934c-4.439,3.956-10.205,11.161-2.832,15.409
		c2.158,1.236,4.9,0.989,7.036,0.315c8.047-2.563,15.668-5.878,24.288-5.608c2.99,0.09,5.912-0.843,8.879-0.112
		c2.394,0.585,4.934,1.562,7.294,2.394C1115.162,424.45,1120.647,426.901,1126.266,426.057z M1108.587,513.151
		c3.877-5.856,6.148-13.341,4.788-20.366c-1.079-5.564-5.844-12.633-10.913-15.319c-8.238-4.361-18.219,0.09-24.108,6.35
		c-11.026,11.7-6.384,30.414,9.374,34.73C1094.785,520.49,1104.282,519.647,1108.587,513.151z M1059.134,652.08
		c8.148-8.384,19.039-22.265,14.027-34.606c-2.776-6.822-8.677-10.138-15.533-11.621c-7.452-1.618-14.611,1.416-21.928,2.372
		c-8.014,1.045-16.128,0.641-24.187,1.011c-6.159,0.281-12.285,0.528-18.466,0.09c-6.586-0.472-13.33-0.573-19.894-1.247
		c-7.126-0.742-15.623,1.337-20.051,7.339c-5.35,7.238-1.585,18.972,3.181,25.423c6.092,8.238,14.139,14.948,22.67,20.557
		c9.419,6.193,18.23,8.666,29.301,10.104C1027.922,674.042,1045.602,665.984,1059.134,652.08z M935.782,426.057
		c6.024-0.888,9.138-6.744,5.777-12.195c-5.148-8.362-17.668-13.802-27.098-14.836c-4.574-0.506-9.317-0.18-13.881,0.528
		c-5.249,0.809-10.981,2.877-15.982,4.765c-3.9,1.472-6.654,3.17-9.756,5.934c-4.439,3.956-10.205,11.161-2.832,15.409
		c2.158,1.236,4.9,0.989,7.025,0.315c8.059-2.563,15.668-5.878,24.288-5.608c3.001,0.09,5.923-0.843,8.89-0.112
		c2.394,0.585,4.934,1.562,7.294,2.394C924.689,424.45,930.163,426.901,935.782,426.057z M921.048,513.151
		c3.878-5.856,6.159-13.341,4.799-20.366c-1.079-5.564-5.856-12.633-10.925-15.319c-8.239-4.361-18.208,0.09-24.108,6.35
		c-11.015,11.7-6.373,30.414,9.374,34.73C907.246,520.49,916.743,519.647,921.048,513.151z"/>
	<path style="fill:#FFFFFF;" d="M508.96,360.926c-5.149,2.176-10.715,6.3-11.702,10.816c-0.533,2.439,0.214,5.04-0.431,7.452
		c-1.077,4.027-5.438,6.032-8.555,8.8c-5.25,4.662-7.211,12.677-4.705,19.236c2.002,5.24,6.526,9.543,7.113,15.122
		c0.498,4.729-1.766,10.297,1.428,13.82c2.709,2.987,7.518,2.3,11.302,3.695c4.865,1.793,7.773,6.965,12.495,9.106
		c6.845,3.103,14.646-1.063,22.155-1.398c4.55-0.203,9.027,1.031,13.549,1.578c4.522,0.547,9.465,0.292,13.09-2.465
		c3.972-3.021,5.424-8.266,8.381-12.286c2.905-3.949,7.182-6.611,10.959-9.736c3.777-3.125,7.3-7.186,7.668-12.074
		c0.5-6.639-4.833-12.183-6.74-18.561c-1.249-4.174-0.996-8.629-1.461-12.961c-0.437-4.061-1.776-9.401-5.99-10.992
		c-2.294-0.866-4.813-0.905-7.189-1.512c-7.529-1.924-12.56-9.152-19.73-12.148c-4.609-1.926-9.832-1.96-14.732-0.99
		c-4.616,0.914-9.293,3.914-13.951,3.991C517.298,359.496,513.412,359.045,508.96,360.926z"/>
	<path style="fill:none;" d="M1182.656,1270.507c-1.943,36.272-34.379,62.525-50.459,95.095
		c-14.048,28.454-15.269,61.301-16.222,93.019"/>
	<path style="fill:#EDEDED;" d="M966.964,1808.406c-3.545-10.627-3.294-21.386-5.176-32.471c-4.523-26.639-7.502-53.513-9.876-80.42
		c-1.133-12.842-0.443-27.182-3.313-39.73c-2.275-9.951-2.95-19.418-3.549-29.73c-2.88-49.577-11.456-98.812-25.419-146.468
		c0.572,3.433,1.115,6.881,1.607,10.352c5.43,38.322,8.234,76.955,10.05,115.601c0.075,1.591,0.151,3.182,0.222,4.772
		c0.899,19.894,1.551,39.798,2.18,59.692c1.248,39.135,2.327,77.563,2.192,116.81c-0.09,29.177-1.158,58.344-2.574,87.487h42.6
		c-0.655-8.769-1.849-17.549-3.057-26.221C971.082,1835.377,971.021,1820.57,966.964,1808.406z"/>
	<path style="fill:#FFFBF2;" d="M1192.747,1000.196c-2.652-16.421-3.799-32.751-7.867-48.981
		c-7.969-31.751-22.445-62.715-47.25-84.79c-9.171-8.16-21.726-12.105-30.684-19.691c1.124,6.058,1.956,12.161,1.618,18.556
		c-0.618,11.756-3.889,23.299-9.126,33.819c-10.374,20.849-28.526,38.135-50.307,46.598c-4.293,1.675-8.542,3.596-12.892,5.114
		c-7.766,2.72-16.747,3.799-24.951,3.361c-8.328-0.438-17.151-2.091-25.21-4.237c-13.397-3.563-24.58-7.227-35.955-15.578
		c-17.174-12.599-30.47-31.009-35.831-51.735c-2.113-8.115-2.248-14.364-0.652-22.321c0.742-3.687,0.944-7.474,0.944-11.296
		c-2.63,2.697-8.295,5.867-11.487,8.744c-20.163,18.208-30.38,49.307-39.585,74.112c-16.949,45.632-20.444,94.365-20.86,142.638
		c-0.416,49.251,2.652,98.277,10.374,147.044c4.136,26.143,9.553,52.094,16.454,77.653c16.505,61.14,39.718,117.748,50.151,180.38
		c13.963,47.656,22.539,96.891,25.419,146.468c0.599,10.311,1.273,19.779,3.549,29.73c2.869,12.549,2.18,26.889,3.313,39.73
		c2.374,26.907,5.352,53.781,9.876,80.42c1.882,11.085,1.631,21.844,5.176,32.471c4.057,12.163,4.118,26.971,5.888,39.675
		c1.208,8.672,2.402,17.451,3.057,26.221h41.159h115.413c0.371-40.54,0.899-81.373-2.709-121.565
		c-3.035-33.797-4.855-67.751-3.945-101.682c0.753-27.885-1.461-56.152-0.517-84.239c1.045-31.414,7.8-62.659,9.093-94.208
		c0.967-23.524,5.013-46.284,9.992-69.291c5.709-26.39,5.35-53.578,12.565-79.9c7.294-26.581,15.027-53.005,20.298-80.226
		c4.799-24.76,7.755-49.734,12.824-74.371C1201.593,1112.972,1201.874,1056.46,1192.747,1000.196z"/>
</g>
<g id="Layer_2">
	<g>
		<path d="M1039.154,281.674c-0.713,0-1.426-0.27-1.974-0.81c-1.104-1.09-1.116-2.869-0.026-3.974
			c20.443-20.716,29.859-47.958,36.374-71.873c0.408-1.498,1.958-2.379,3.449-1.973c1.497,0.408,2.381,1.952,1.973,3.449
			c-11.95,43.871-25.813,62.2-37.796,74.344C1040.604,281.395,1039.88,281.674,1039.154,281.674z"/>
	</g>
	<g>
		<path d="M1084.297,282.755c-1.161,0-2.247-0.725-2.652-1.882c-0.513-1.465,0.259-3.068,1.724-3.58
			c14.93-5.227,28.334-12.996,39.841-23.092c1.169-1.023,2.942-0.907,3.966,0.259c1.023,1.166,0.907,2.942-0.259,3.965
			c-12.052,10.573-26.078,18.705-41.69,24.171C1084.918,282.704,1084.604,282.755,1084.297,282.755z"/>
	</g>
	<g>
		<path d="M955.321,255.53c-1.295,0-2.46-0.9-2.744-2.218c-6.314-29.25-22.717-51.379-45.002-60.714
			c-1.432-0.6-2.106-2.246-1.506-3.677c0.6-1.432,2.249-2.104,3.677-1.506c24.004,10.055,41.618,33.641,48.325,64.712
			c0.328,1.517-0.637,3.012-2.154,3.339C955.717,255.509,955.518,255.53,955.321,255.53z"/>
	</g>
	<g>
		<path d="M860.724,254.196c-0.462,0-0.931-0.114-1.363-0.355c-16.961-9.434-33.234-13.14-48.36-11.012
			c-1.542,0.218-2.957-0.855-3.174-2.392c-0.216-1.537,0.855-2.957,2.392-3.174c16.367-2.298,33.82,1.624,51.874,11.667
			c1.356,0.754,1.844,2.465,1.09,3.821C862.668,253.675,861.71,254.196,860.724,254.196z"/>
	</g>
	<g>
		<path style="fill:#AB684D;" d="M1016.617,571.294c-2.961,0-6.088-0.713-9.334-2.132c-5.563-2.434-9.659-5.028-12.892-8.163
			c-1.114-1.08-1.142-2.859-0.061-3.973c1.08-1.114,2.859-1.142,3.973-0.061c2.736,2.652,6.304,4.892,11.231,7.048
			c3.277,1.432,6.298,1.943,8.972,1.514c2.049-0.326,4.117-0.968,6.147-1.911c2.662-1.23,10.75-4.967,5.437-22.418
			c-1.755-5.761-3.825-11.546-5.827-17.14c-1.829-5.111-3.72-10.396-5.383-15.692c-0.963-3.066-1.22-6.042-1.469-8.919
			c-0.12-1.379-0.232-2.682-0.418-4.006c-1.439-10.241-0.545-20.802,0.636-30.69c0.185-1.541,1.582-2.645,3.123-2.457
			c1.541,0.184,2.641,1.582,2.457,3.123c-1.136,9.511-2,19.637-0.651,29.242c0.207,1.473,0.331,2.912,0.452,4.304
			c0.233,2.695,0.453,5.241,1.231,7.72c1.63,5.19,3.502,10.422,5.313,15.482c2.024,5.657,4.118,11.506,5.912,17.397
			c5.57,18.295-1.521,25.952-8.451,29.155c-2.497,1.159-5.064,1.954-7.625,2.361
			C1018.483,571.221,1017.559,571.294,1016.617,571.294z"/>
	</g>
	<g>
		<path style="fill:#AB684D;" d="M768.415,588.457c-1.029,0-2.021-0.568-2.514-1.551c-1.452-2.896-4.215-4.764-7.14-6.741
			c-3.393-2.294-7.24-4.895-9.058-9.451c-1.878-4.706-0.588-8.861,0.551-12.527c0.493-1.588,0.959-3.088,1.179-4.593
			c0.218-1.494-0.274-2.843-0.897-4.552c-0.298-0.819-0.607-1.666-0.864-2.604c-0.823-3.008-1.559-4.796-3.302-6.225
			c-4.477-3.67-8.48-5.481-11.265-5.106c-1.47,0.2-2.704,1.033-3.772,2.548c-0.893,1.268-2.647,1.572-3.916,0.676
			c-1.268-0.894-1.571-2.647-0.676-3.915c1.99-2.821,4.55-4.462,7.608-4.877c4.482-0.603,9.721,1.522,15.584,6.328
			c3.18,2.607,4.292,5.919,5.159,9.088c0.195,0.714,0.452,1.417,0.723,2.162c0.751,2.059,1.601,4.392,1.178,7.29
			c-0.283,1.939-0.837,3.723-1.373,5.447c-1.027,3.308-1.838,5.92-0.698,8.777c1.178,2.952,3.87,4.772,6.986,6.878
			c3.237,2.189,6.906,4.669,9.016,8.878c0.696,1.387,0.135,3.076-1.252,3.771C769.269,588.361,768.839,588.457,768.415,588.457z"/>
	</g>
	<g>
		<path style="fill:#AB684D;" d="M1222.462,591.803c-0.424,0-0.854-0.096-1.257-0.299c-1.388-0.695-1.948-2.384-1.253-3.771
			c2.168-4.325,5.945-6.878,9.277-9.131c3.23-2.184,6.02-4.069,7.247-7.143c1.188-2.979,0.305-5.826-0.719-9.123
			c-0.552-1.777-1.123-3.615-1.414-5.609c-0.434-2.968,0.439-5.364,1.211-7.478c0.28-0.771,0.546-1.499,0.749-2.241
			c0.891-3.257,2.034-6.661,5.297-9.335c6.03-4.945,11.422-7.14,16.017-6.513c3.132,0.425,5.754,2.106,7.793,4.997
			c0.895,1.268,0.592,3.021-0.677,3.916c-1.266,0.893-3.02,0.593-3.915-0.677c-1.119-1.586-2.413-2.459-3.957-2.668
			c-2.897-0.389-7.057,1.485-11.698,5.291c-1.818,1.491-2.585,3.349-3.439,6.473c-0.264,0.965-0.582,1.838-0.89,2.682
			c-0.647,1.776-1.158,3.178-0.93,4.742c0.229,1.56,0.71,3.112,1.22,4.755c1.171,3.771,2.498,8.044,0.571,12.873
			c-1.867,4.678-5.655,7.239-9.318,9.715c-3.03,2.048-5.892,3.983-7.401,6.994C1224.483,591.235,1223.491,591.803,1222.462,591.803z
			"/>
	</g>
	<g>
		<path style="fill:#AB684D;" d="M678.33,918.17c-0.645,0-1.131-0.142-1.555-0.291c-0.165-0.058-0.186-0.065-0.332-0.076
			c-1.547-0.122-2.702-1.475-2.581-3.022c0.122-1.547,1.476-2.701,3.022-2.581c0.683,0.054,1.159,0.179,1.546,0.306
			c0.268-0.059,0.546-0.081,0.819-0.061c7.459,0.56,13.954-8.744,16.3-14.719c3.898-9.932,4.989-21.436,3.242-34.192
			c-1.479-10.793-3.413-21.966-9.278-29.548c-1.1-1.422-2.205-2.862-3.318-4.316c-0.943-1.232-0.709-2.996,0.523-3.939
			c1.232-0.943,2.996-0.709,3.94,0.522c1.108,1.447,2.208,2.881,3.302,4.295c6.713,8.679,8.819,20.678,10.4,32.224
			c1.88,13.72,0.676,26.172-3.578,37.009c-1.755,4.467-4.652,8.907-7.949,12.182c-4.226,4.196-8.906,6.296-13.548,6.113
			C678.929,918.143,678.614,918.17,678.33,918.17z"/>
	</g>
	<g>
		<path style="fill:#AB684D;" d="M580.95,791.044c-0.853,0-1.695-0.387-2.248-1.121c-0.933-1.24-0.683-3.001,0.557-3.935
			c9.196-6.917,20.708-11.285,32.417-12.301c1.539-0.139,2.908,1.011,3.042,2.557s-1.011,2.908-2.557,3.042
			c-10.673,0.926-21.158,4.901-29.524,11.193C582.131,790.86,581.538,791.044,580.95,791.044z"/>
	</g>
	<g>
		<path style="fill:#AB684D;" d="M638.162,960.871c-3.811,0-7.382-1.019-9.94-3.757c-0.177-0.18-0.867-0.499-1.323-0.71
			c-1.521-0.705-4.068-1.884-4.317-4.824c-0.131-1.546,1.016-2.906,2.562-3.038c1.431-0.112,2.68,0.836,2.98,2.188
			c0.271,0.174,0.778,0.409,1.137,0.575c1.011,0.468,2.156,0.998,3.067,1.973c4.215,4.512,16.101,0.416,21.29-3.046
			c14.506-9.68,24.986-33.707,15.834-59.17c-1.095-3.046-3.232-6.052-5.299-8.959c-0.809-1.139-1.646-2.316-2.416-3.488
			c-12.212-18.605-24.276-29.288-35.857-31.751c-12.435-2.646-26.327-0.539-33.502,0.951c-1.518,0.313-3.007-0.66-3.322-2.179
			c-0.316-1.519,0.66-3.007,2.179-3.323c7.606-1.58,22.372-3.804,35.814-0.946c13.266,2.822,26.149,13.997,39.387,34.165
			c0.712,1.085,1.482,2.169,2.298,3.316c2.287,3.216,4.651,6.542,6.007,10.315c7.551,21.009,3.808,51.192-18.003,65.746
			C652.919,957.452,645.14,960.871,638.162,960.871z"/>
	</g>
	<g>
		<path style="fill:#AB684D;" d="M600.4,990.71c-5.103,0-9.942-2.389-13.479-7.01c-2.872-3.751-4.766-8.436-5.069-12.53
			c-0.131-1.77,0.03-3.541,0.186-5.254c0.241-2.651,0.469-5.155-0.436-7.104c-2.272-4.896-6.453-8.275-10.88-11.854l-1.47-1.192
			c-1.202-0.981-1.38-2.751-0.399-3.954c0.981-1.202,2.751-1.381,3.954-0.399l1.448,1.174c4.732,3.824,9.624,7.778,12.446,13.858
			c1.541,3.32,1.219,6.857,0.935,9.979c-0.141,1.555-0.275,3.023-0.178,4.331c0.222,3.003,1.727,6.654,3.927,9.529
			c4.152,5.426,10.415,6.34,16.342,2.39c10.311-6.873,14.473-21.26,14.929-32.432c0.234-5.738-0.647-11.906-2.62-18.334
			c-2.062-6.718-7.574-12.304-12.905-17.706l-1.281-1.301c-6.253-6.375-13.163-11.005-20.536-13.762
			c-1.454-0.543-2.191-2.162-1.648-3.616c0.543-1.454,2.162-2.192,3.616-1.648c8.149,3.046,15.746,8.123,22.579,15.09l1.27,1.289
			c5.536,5.61,11.81,11.969,14.277,20.004c2.16,7.037,3.123,13.837,2.863,20.212c-0.665,16.261-7.179,30.047-17.427,36.878
			C607.457,989.607,603.868,990.71,600.4,990.71z"/>
	</g>
	<g>
		<path style="fill:#AB684D;" d="M634.151,996.462c-0.27,0-0.545-0.039-0.816-0.122c-1.485-0.451-2.324-2.019-1.874-3.504
			c4.116-13.568,9.005-23.698,15.854-32.844c1.223-1.634,2.329-3.141,3.417-4.624c1.592-2.169,3.096-4.219,4.887-6.562
			c0.943-1.233,2.706-1.468,3.939-0.526c1.233,0.943,1.468,2.706,0.526,3.939c-1.758,2.299-3.246,4.327-4.821,6.474
			c-1.098,1.497-2.215,3.018-3.45,4.668c-6.438,8.6-11.057,18.193-14.974,31.107C636.471,995.68,635.356,996.462,634.151,996.462z"
			/>
	</g>
	<g>
		<path style="fill:#2E5378;" d="M604.954,1679.253c-0.216,0-0.435-0.025-0.654-0.077c-1.509-0.36-2.441-1.876-2.082-3.385
			c3.295-13.818,5.89-27.869,8.399-41.457c1.215-6.582,2.363-12.799,3.588-19.005c4.073-20.64,8.367-41.645,12.52-61.958
			c12.648-61.867,25.728-125.842,34.513-189.049c1.364-9.813,3.089-18.491,5.275-26.531c1.969-7.241,4.798-14.271,7.534-21.069
			c4.74-11.775,9.216-22.897,9.74-35.24c0.575-13.571-1.439-27.058-3.387-40.1c-2.544-17.034-5.174-34.649-2.295-53.163
			c2.144-13.799,6.151-25.692,10.026-37.195c7.605-22.574,14.173-42.07,5.232-69.757c-0.419-1.298-0.745-2.612-1.061-3.883
			c-0.924-3.725-1.722-6.94-4.426-8.412c-1.363-0.742-1.866-2.448-1.124-3.811c0.742-1.362,2.45-1.866,3.812-1.124
			c4.875,2.654,6.106,7.616,7.192,11.994c0.306,1.232,0.595,2.397,0.954,3.51c9.511,29.45,2.339,50.739-5.253,73.277
			c-3.8,11.278-7.729,22.941-9.799,36.265c-2.747,17.668-0.182,34.852,2.3,51.47c1.987,13.304,4.041,27.059,3.443,41.168
			c-0.565,13.308-5.433,25.403-10.141,37.101c-2.675,6.647-5.442,13.521-7.325,20.445c-2.122,7.807-3.801,16.256-5.132,25.83
			c-8.81,63.385-21.907,127.447-34.573,189.401c-4.151,20.304-8.443,41.299-12.512,61.92c-1.218,6.173-2.363,12.373-3.575,18.938
			c-2.522,13.658-5.13,27.781-8.458,41.739C607.377,1678.385,606.225,1679.253,604.954,1679.253z"/>
	</g>
	<g>
		<path style="fill:#2E5378;" d="M599.887,1255.565c-0.721,0-1.441-0.275-1.99-0.826c-23.912-23.998-45.231-50.513-69.884-82.942
			c-0.939-1.235-0.699-2.998,0.536-3.938c1.235-0.938,2.999-0.699,3.938,0.537c24.517,32.249,45.699,58.6,69.391,82.376
			c1.096,1.1,1.092,2.879-0.007,3.974C601.322,1255.293,600.604,1255.565,599.887,1255.565z"/>
	</g>
	<g>
		<path style="fill:#2E5378;" d="M554.423,1319.203c-13.213,0-27.233-2.486-42.827-7.518c-1.477-0.477-2.288-2.06-1.811-3.536
			c0.477-1.478,2.061-2.289,3.537-1.812c23.767,7.669,43.625,9.199,62.494,4.814c1.512-0.354,3.021,0.59,3.373,2.102
			c0.351,1.512-0.589,3.021-2.101,3.373C569.709,1318.341,562.206,1319.203,554.423,1319.203z"/>
	</g>
	<g>
		<path style="fill:#2E5378;" d="M1397.062,1878.133c-0.008,0-0.017,0-0.025,0c-1.552-0.014-2.799-1.283-2.784-2.835
			c0.175-19.306-1.521-39.235-3.163-58.509c-1.425-16.738-2.897-34.048-3.136-50.857c-0.438-30.964-2.005-62.452-3.52-92.903
			c-0.546-10.969-1.11-22.31-1.613-33.465c-2.981-66.033-7.493-128.838-13.792-192.002c-6.641-66.578-12.268-131.708-8.24-196.545
			c2.914-46.912,13.248-96.985,31.592-153.082c0.482-1.477,2.071-2.279,3.544-1.798c1.476,0.482,2.28,2.069,1.798,3.544
			c-18.194,55.638-28.44,105.254-31.324,151.684c-4.001,64.419,1.606,129.3,8.223,195.639
			c6.31,63.268,10.828,126.171,13.813,192.307c0.503,11.143,1.067,22.478,1.612,33.439c1.518,30.5,3.086,62.039,3.526,93.103
			c0.235,16.611,1.7,33.819,3.116,50.461c1.652,19.403,3.36,39.467,3.183,59.036
			C1399.857,1876.892,1398.602,1878.133,1397.062,1878.133z"/>
	</g>
	<g>
		<path style="fill:#2E5378;" d="M1482.861,1769.582c-0.8,0-1.594-0.34-2.149-0.999c-1-1.187-0.849-2.959,0.338-3.959
			c29.769-25.087,50.625-50.125,61.988-74.419c0.657-1.405,2.33-2.015,3.735-1.354c1.405,0.657,2.013,2.33,1.354,3.735
			c-11.711,25.037-33.061,50.721-63.457,76.335C1484.144,1769.365,1483.501,1769.582,1482.861,1769.582z"/>
	</g>
	<g>
		<path style="fill:#A19086;" d="M558.909,550.203c-0.393,0-0.792-0.074-1.18-0.229c-1.237-0.498-2.468-1.077-3.658-1.636
			c-1.733-0.815-3.37-1.584-5.016-2.124c-8.787-2.883-17.588-6.622-26.099-10.237l-2.459-1.044
			c-1.607-0.681-2.357-2.536-1.677-4.143c0.682-1.607,2.535-2.357,4.144-1.677l2.464,1.046c8.39,3.564,17.066,7.249,25.599,10.049
			c2.013,0.66,3.904,1.549,5.733,2.409c1.162,0.546,2.259,1.062,3.33,1.493c1.619,0.652,2.403,2.493,1.751,4.112
			C561.346,549.454,560.161,550.203,558.909,550.203z"/>
	</g>
	<g>
		<path style="fill:#A19086;" d="M563.435,535.368c-0.848,0-1.622-0.284-2.113-0.464l-0.262-0.094
			c-1.225-0.408-2.264-0.788-3.178-1.161l-0.715-0.293c-1.844-0.757-3.176-1.304-5.033-1.742
			c-8.351-1.969-16.695-4.716-24.765-7.373c-2.647-0.872-5.284-1.74-7.91-2.578c-1.663-0.53-2.581-2.308-2.05-3.971
			c0.53-1.664,2.309-2.579,3.971-2.051c2.644,0.844,5.301,1.718,7.966,2.596c7.942,2.615,16.155,5.319,24.238,7.225
			c2.344,0.552,4.031,1.245,5.984,2.047l0.702,0.288c0.785,0.32,1.696,0.652,2.787,1.016c0.082,0.027,0.173,0.06,0.27,0.094
			c1.369-0.074,2.693,0.754,3.168,2.12c0.422,1.216,0.122,2.522-0.781,3.41C564.991,535.146,564.184,535.368,563.435,535.368z
			 M560.521,533.095c0,0.001,0.001,0.003,0.001,0.004C560.521,533.098,560.521,533.097,560.521,533.095z"/>
	</g>
	<g>
		<path style="fill:#A19086;" d="M564.404,522.964c-1.509,0-2.757-0.842-3.503-1.345c-0.161-0.108-0.312-0.219-0.455-0.295
			c-4.591-2.329-9.504-3.664-14.705-5.079c-1.922-0.523-3.909-1.063-5.877-1.657c-1.379-0.417-14.161-4.75-19.591-7.12
			c-1.6-0.698-2.331-2.561-1.632-4.161c0.699-1.6,2.562-2.33,4.161-1.632c5.109,2.229,17.607,6.474,18.891,6.862
			c1.883,0.569,3.827,1.097,5.707,1.608c5.279,1.435,10.738,2.92,15.909,5.542c0.42,0.213,0.795,0.466,1.127,0.69
			c0.094,0.063,0.213,0.144,0.322,0.214c1.29,0.025,2.486,0.846,2.928,2.137c0.565,1.652-0.315,3.449-1.967,4.014
			C565.263,522.899,564.824,522.964,564.404,522.964z"/>
	</g>
	<g>
		<path style="fill:#A84216;" d="M548.467,502.115c-0.008,0-0.016,0-0.023-0.001c-1.746-0.013-3.15-1.438-3.137-3.183
			c0.048-6.698,1.548-13.333,2.999-19.748c0.833-3.682,1.619-7.159,2.152-10.648c0.426-2.787,0.816-5.608,1.21-8.445
			c1.548-11.175,3.148-22.73,7.072-33.444c0.289-0.79,0.585-1.557,0.887-2.303c-2.278-0.416-4.505-1.198-6.388-1.859
			c-5.352-1.879-9.991-5.063-13.643-9.216c-0.91,0.896-1.872,1.694-2.771,2.44c-0.538,0.446-1.07,0.887-1.573,1.336
			c-2.248,2.009-4.93,4.252-8.311,5.44c-1.883,0.661-4.11,1.443-6.389,1.859c0.302,0.746,0.598,1.514,0.887,2.304
			c3.923,10.713,5.523,22.268,7.071,33.443c0.393,2.837,0.784,5.658,1.209,8.444c0.65,4.255,1.604,8.587,2.526,12.777
			c1.233,5.603,2.509,11.396,3.13,17.261c0.184,1.736-1.075,3.292-2.81,3.476c-1.734,0.18-3.292-1.075-3.476-2.81
			c-0.583-5.514-1.82-11.133-3.017-16.567c-0.944-4.289-1.92-8.723-2.601-13.182c-0.431-2.814-0.826-5.665-1.223-8.532
			c-1.502-10.845-3.055-22.06-6.746-32.137c-0.514-1.405-1.047-2.724-1.602-3.963c-5.165,0.204-11.487-0.071-14.93-3.869
			c-1.332-1.47-2.778-4.118-2.098-8.385c0.698-4.371,3.134-5.875,4.524-6.384c2.603-0.953,5.727-0.094,8.566,2.354
			c2.997,2.589,5.534,5.771,7.738,9.746c0.074-0.004,0.147-0.007,0.22-0.011c2.134-0.106,4.679-0.999,6.924-1.787
			c2.29-0.805,4.315-2.511,6.194-4.19c0.559-0.5,1.15-0.992,1.748-1.487c1.131-0.939,2.215-1.838,3.044-2.784
			c-2.113-3.594-3.624-7.649-4.424-12.031c-1.019-5.544-0.371-13.037,4.816-15.891c1.729-0.95,3.646-0.956,5.265-0.02
			c4.518,2.613,4.975,11.655,4.976,11.745c0.092,4.434-0.422,10.537-3.102,16.037c3.087,3.941,7.177,6.938,11.969,8.62
			c2.245,0.788,4.789,1.681,6.923,1.787c0.072,0.004,0.146,0.007,0.22,0.011c2.204-3.974,4.74-7.156,7.736-9.744
			c2.842-2.451,5.965-3.31,8.568-2.357c1.391,0.508,3.827,2.013,4.524,6.384c0.681,4.267-0.765,6.915-2.098,8.385
			c-3.442,3.797-9.762,4.075-14.93,3.869c-0.555,1.239-1.087,2.558-1.601,3.962c-3.691,10.079-5.245,21.293-6.747,32.138
			c-0.397,2.866-0.792,5.717-1.223,8.532c-0.566,3.71-1.415,7.46-2.234,11.087c-1.377,6.088-2.8,12.384-2.844,18.4
			C551.614,500.715,550.202,502.115,548.467,502.115z M576.544,412.124c-0.161,0-1.054,0.246-2.204,1.238
			c-1.685,1.456-3.207,3.171-4.597,5.2c2.841-0.084,5.595-0.512,6.779-1.818c0.219-0.241,0.885-0.976,0.539-3.144
			c-0.186-1.168-0.51-1.473-0.513-1.476C576.546,412.124,576.545,412.124,576.544,412.124z M503.558,412.161
			c0.015,0.021-0.271,0.366-0.443,1.439c-0.346,2.168,0.32,2.902,0.539,3.144c1.184,1.306,3.938,1.733,6.779,1.818
			c-1.391-2.029-2.912-3.745-4.599-5.202C504.694,412.377,503.814,412.128,503.558,412.161z M538.694,386.16
			c-1.339,1.563-1.662,5.51-1.07,8.731c0.37,2.026,0.922,3.966,1.641,5.801c0.765-3.1,0.931-6.207,0.879-8.7
			C540.117,390.559,539.428,387.553,538.694,386.16z"/>
	</g>
	<g>
		<path style="fill:#2E5378;" d="M880.746,1496.303c-1.371,0-2.571-1.005-2.776-2.401c-4.349-29.537-12.935-57.777-20.76-81.507
			c-2.711-8.221-5.984-16.679-9.15-24.858c-6.82-17.62-13.872-35.84-16.531-54.397c-0.22-1.536,0.847-2.96,2.383-3.18
			c1.536-0.222,2.96,0.847,3.18,2.383c2.569,17.923,9.503,35.84,16.209,53.166c3.191,8.245,6.491,16.771,9.247,25.127
			c7.9,23.957,16.572,52.488,20.982,82.448c0.226,1.535-0.835,2.963-2.371,3.189
			C881.019,1496.292,880.882,1496.303,880.746,1496.303z"/>
	</g>
	<g>
		<path style="fill:#2E5378;" d="M1408.277,1079.236c-0.354,0-0.714-0.067-1.062-0.209c-1.437-0.587-2.125-2.228-1.539-3.664
			c4.563-11.175,11.042-21.369,17.308-31.228c4.24-6.673,8.625-13.572,12.282-20.599c0.716-1.378,2.416-1.911,3.789-1.195
			c1.377,0.716,1.912,2.413,1.195,3.789c-3.769,7.242-8.22,14.246-12.524,21.018c-6.132,9.65-12.474,19.629-16.847,30.339
			C1410.435,1078.577,1409.385,1079.236,1408.277,1079.236z"/>
	</g>
</g>
</svg>
